<?xml version="1.0" standalone="no"?>
<!DOCTYPE svg PUBLIC "-//W3C//DTD SVG 20010904//EN"
 "http://www.w3.org/TR/2001/REC-SVG-20010904/DTD/svg10.dtd">
<svg version="1.0" xmlns="http://www.w3.org/2000/svg"
 width="1066.000000pt" height="1066.000000pt" viewBox="0 0 1066.000000 1066.000000"
 preserveAspectRatio="xMidYMid meet">
<metadata>
Created by potrace 1.11, written by Peter Selinger 2001-2013
</metadata>
<g transform="translate(0.000000,1066.000000) scale(0.100000,-0.100000)"
fill="#000000" stroke="none">
<path d="M3626 9412 c-12 -20 -87 -149 -166 -287 -79 -137 -218 -380 -310
-540 -91 -159 -274 -477 -405 -705 -131 -228 -288 -503 -350 -610 -62 -107
-201 -350 -310 -540 -109 -190 -239 -417 -290 -505 -51 -88 -180 -313 -287
-500 -108 -187 -273 -475 -368 -640 -394 -686 -473 -826 -469 -829 2 -2 78
-46 169 -98 246 -142 559 -322 700 -403 69 -40 248 -142 398 -229 149 -86 395
-227 545 -313 149 -86 430 -247 622 -358 193 -111 521 -300 730 -420 452 -260
1065 -612 1632 -938 227 -130 416 -237 422 -237 5 0 15 17 22 38 6 20 30 73
52 117 133 268 372 467 680 570 138 46 239 59 410 52 247 -9 458 -87 639 -238
l47 -39 54 92 c30 51 127 221 217 378 90 157 239 416 330 575 92 160 247 430
345 600 98 171 248 432 333 580 85 149 223 389 307 535 208 362 490 853 597
1039 77 134 89 160 86 195 l-3 40 -580 333 c-319 184 -692 399 -830 478 -137
78 -335 192 -440 252 -180 104 -404 233 -865 498 -113 65 -293 168 -400 230
-339 196 -440 253 -440 250 0 -1 21 -33 46 -71 69 -105 159 -295 204 -431 118
-362 118 -657 0 -943 -137 -331 -513 -690 -1095 -1045 -60 -36 -113 -70 -116
-73 -4 -4 12 -56 35 -117 24 -60 96 -247 161 -415 64 -168 144 -375 177 -460
33 -85 62 -158 66 -162 4 -4 88 33 187 81 468 228 814 478 1202 870 174 175
183 182 192 160 6 -13 46 -116 89 -229 44 -113 123 -319 177 -457 86 -221 96
-255 84 -270 -21 -25 -221 -189 -344 -282 -327 -247 -793 -522 -1156 -681 -52
-23 -95 -43 -97 -45 -1 -1 2 -13 7 -26 6 -13 90 -231 186 -484 97 -253 189
-493 205 -534 17 -41 29 -76 27 -78 -2 -1 -73 -29 -158 -62 -85 -33 -218 -84
-296 -114 -79 -31 -145 -52 -147 -49 -6 10 -305 779 -392 1009 -22 57 -44 103
-51 103 -7 0 -72 -17 -145 -39 -170 -49 -325 -84 -508 -112 -190 -30 -523 -33
-667 -6 -464 87 -788 339 -1000 777 -68 141 -144 366 -174 520 -32 159 -32
402 -1 538 101 443 451 813 1195 1261 75 46 137 86 137 89 0 6 -309 809 -401
1040 -4 12 -11 22 -14 22 -16 0 -348 -173 -455 -238 -287 -172 -607 -413 -818
-616 -57 -53 -76 -67 -82 -55 -4 7 -45 111 -90 229 -46 118 -125 323 -176 455
l-93 240 32 28 c60 52 442 304 642 424 220 131 394 227 585 323 69 34 126 63
128 65 1 1 -61 166 -139 366 -77 200 -150 388 -161 417 -11 30 -16 58 -12 62
13 12 585 232 590 227 4 -4 182 -454 287 -727 21 -52 41 -101 46 -109 7 -11
26 -8 107 17 379 117 740 164 1014 132 41 -4 76 -7 77 -6 2 1 -237 140 -530
308 -498 286 -718 413 -1180 679 l-187 108 -24 -37z"/>
<path d="M4835 7383 c-141 -29 -156 -35 -149 -57 14 -45 358 -931 365 -939 15
-19 177 87 267 175 136 133 183 272 148 438 -54 257 -231 392 -511 389 -55 -1
-109 -3 -120 -6z"/>
<path d="M4853 4891 c-298 -164 -440 -357 -417 -566 9 -89 59 -234 102 -301
139 -215 363 -263 716 -153 43 13 66 25 63 32 -5 12 -79 201 -211 542 -154
399 -182 469 -191 472 -6 1 -33 -10 -62 -26z"/>
</g>
</svg>
